<svg width="157" height="112" viewBox="0 0 157 112" fill="none" xmlns="http://www.w3.org/2000/svg">
<path d="M107.482 35.5247C107.482 39.5876 107.482 43.7548 107.482 47.8177C107.378 56.777 103.315 63.5486 95.606 68.0282C92.3765 69.9034 88.6261 70.841 84.8757 70.841C80.6044 70.841 76.3331 71.0494 72.0618 70.7369C63.1025 70.216 56.5393 65.7363 52.4764 57.8188C50.9137 54.6935 50.1844 51.2556 50.1844 47.8177C50.1844 39.5876 50.1844 31.3576 50.1844 23.1275C50.0803 16.4601 52.8931 10.1053 57.9978 5.72979C62.0607 1.97938 67.2696 0 72.7911 0C76.6456 0 80.5002 0 84.459 0C93.4183 0.104178 100.19 4.16712 104.67 11.8763C106.545 15.1058 107.482 18.752 107.482 22.5024V35.5247ZM106.232 35.4205C106.232 31.2534 106.232 26.9821 106.232 22.815C106.232 19.5855 105.503 16.4601 104.044 13.5431C99.8773 5.62561 93.3141 1.56267 84.5632 1.25014C80.7086 1.14596 76.9582 1.25014 73.1036 1.25014C68.8323 1.25014 64.6652 2.50027 61.1231 4.89637C55.0808 9.06349 51.6429 15.0016 51.5387 22.3983C51.3304 30.6283 51.4346 38.8584 51.5387 46.9843C51.5387 48.5469 51.6429 50.1096 51.9555 51.6723C52.6847 55.9436 54.6641 59.9023 57.6853 62.9235C61.7482 67.1948 67.478 69.5909 73.4161 69.4867C77.0624 69.4867 80.7086 69.4867 84.3548 69.4867C87.7927 69.5909 91.1264 68.7575 94.1476 67.1948C101.753 63.1319 105.92 56.777 106.128 48.0261C106.336 43.8589 106.232 39.5876 106.232 35.4205Z" fill="#AF9259"/>
<path d="M85.8138 18.127C85.8138 17.5019 85.8138 16.8769 85.8138 16.1476C85.8138 15.6267 85.918 15.5226 86.4389 15.5226C86.9598 15.5226 87.0639 15.7309 87.0639 16.2518C87.0639 18.3354 87.0639 20.5231 87.0639 22.6067C87.0639 23.0234 86.9598 23.2317 86.5431 23.2317C86.1263 23.2317 85.918 23.1276 85.8138 22.6067C85.6054 19.6897 83.7302 17.1894 80.9174 16.2518C80.3965 16.0435 79.9798 15.9393 79.4589 15.9393C77.3754 15.8351 75.1876 15.8351 73.1041 16.0435C70.4996 16.356 67.8952 19.1688 67.3743 21.8774C67.2701 22.5025 67.3743 22.7108 68.1035 22.7108H77.7921C78.2088 22.7108 78.5213 22.7108 78.5213 23.3359C78.5213 23.961 78.313 23.961 77.8963 23.961C76.7503 23.961 75.5002 23.961 74.3542 23.961C73.5208 23.961 73.4166 24.0652 73.4166 24.8986C73.4166 31.566 73.4166 38.2334 73.4166 44.9008C73.4166 45.63 73.625 45.9425 74.3542 45.9425C75.396 45.9425 76.4378 45.9425 77.4796 45.9425C77.6879 45.9425 77.8963 45.63 78.0005 45.4216C78.0005 45.2133 78.0005 45.0049 78.0005 44.7966V27.0863C78.0005 26.0445 78.0005 26.0445 78.9381 26.0445H86.4389C90.2935 25.9404 93.523 28.7532 93.9397 32.5036C94.5648 36.0456 92.6896 39.5877 89.3559 40.942C88.6266 41.1504 87.8974 41.3587 87.0639 41.5671C86.7514 41.6712 86.4389 41.8796 86.2305 42.088C84.9804 44.6924 82.5843 46.5676 79.6673 47.0885C79.4589 47.1927 79.2506 47.401 79.1464 47.7136C79.1464 50.318 79.1464 52.8183 79.1464 55.4227C79.1464 55.9436 79.4589 56.0478 79.8757 56.0478H83.5219C83.9386 56.0478 84.2511 56.152 84.2511 56.6729C84.2511 57.1938 83.9386 57.2979 83.5219 57.2979H73.2083C72.7916 57.2979 72.479 57.1938 72.479 56.6729C72.479 56.152 72.7916 56.0478 73.2083 56.0478C74.4584 56.0478 75.7085 56.0478 76.9587 56.0478C77.5837 56.0478 77.7921 55.8395 77.7921 55.2144C77.7921 54.5893 77.7921 53.9643 77.7921 53.3392C77.7921 52.6099 77.5837 52.4016 76.9587 52.4016C73.8333 52.4016 70.708 52.4016 67.5827 52.4016C67.1659 52.4016 66.7492 52.4016 66.7492 51.7765C66.7492 51.3598 66.9576 51.1514 67.3743 51.1514C68.6244 51.1514 69.8746 51.1514 71.1247 51.1514C71.7498 51.1514 72.0623 50.9431 71.9581 50.318C71.9581 49.3804 71.9581 48.4428 71.9581 47.5052C71.9581 47.0885 71.7498 46.6718 71.3331 46.5676C67.791 45.1091 65.4991 41.5671 65.7075 37.7125C65.7075 33.0245 65.7075 28.4406 65.7075 23.7526C65.7075 18.7521 69.6662 14.6891 74.6668 14.585C76.542 14.585 78.4172 14.6891 80.2924 14.8975C82.1676 15.21 83.8344 16.2518 84.9804 17.7103C85.0846 17.9187 85.2929 18.127 85.3971 18.3354L85.8138 18.127ZM72.0623 34.6913V24.8986C72.0623 24.0652 72.0623 23.961 71.1247 23.961C70.0829 23.961 69.0411 23.961 67.9994 23.961C66.9576 23.961 67.0618 23.961 67.0618 24.8986C67.0618 29.2741 67.0618 33.6495 67.0618 38.025C67.0618 40.8378 68.5203 43.5464 71.0205 44.9008C71.854 45.4217 71.9581 45.3175 71.9581 44.2757L72.0623 34.6913ZM85.8138 33.1286H91.8561C92.2728 33.1286 92.5854 33.1286 92.4812 32.6078C92.1687 30.2117 89.7726 27.7114 87.3765 27.503C84.8762 27.2947 82.2718 27.3989 79.6673 27.2947C79.1464 27.2947 79.0422 27.503 79.0422 28.0239C79.0422 29.4824 79.0422 30.9409 79.0422 32.3994C79.0422 33.0245 79.2506 33.1286 79.7715 33.1286C81.855 33.1286 83.8344 33.1286 85.8138 33.1286ZM82.4801 34.3788C81.5425 34.3788 80.7091 34.3788 79.7715 34.3788C79.2506 34.3788 79.0422 34.5871 79.0422 35.108C79.0422 36.6707 79.0422 38.1292 79.0422 39.5877C79.0422 40.1086 79.2506 40.3169 79.7715 40.3169C81.4383 40.3169 83.1052 40.3169 84.772 40.3169C85.3971 40.3169 85.6054 40.1086 85.6054 39.4835C85.7096 37.9208 85.7096 36.4623 85.8138 34.8997C85.8138 34.483 85.6054 34.3788 85.1887 34.3788H82.4801ZM89.8767 34.3788C89.1475 34.3788 88.5224 34.3788 87.7932 34.3788C87.2723 34.3788 87.0639 34.5871 87.0639 35.108C87.0639 36.6707 86.9598 38.1292 86.8556 39.6919C86.8556 40.1086 86.9598 40.3169 87.4807 40.2127C90.0851 39.6919 92.0645 37.6083 92.5854 35.0038C92.6896 34.483 92.4812 34.3788 92.0645 34.3788H89.8767ZM75.5002 51.2556C76.0211 51.2556 76.6461 51.2556 77.167 51.2556C77.6879 51.2556 77.8963 51.0473 77.7921 50.6306C77.7921 49.7971 77.7921 48.8595 77.7921 48.0261C77.7921 47.5052 77.5837 47.2969 77.0629 47.2969C76.0211 47.2969 74.8751 47.2969 73.8333 47.1927C73.5208 47.1927 73.3124 47.2969 73.3124 47.7136C73.3124 48.7553 73.3124 49.6929 73.3124 50.6306C73.3124 51.0473 73.5208 51.1514 73.8333 51.1514L75.5002 51.2556ZM81.9592 41.5671C81.23 41.5671 80.5007 41.5671 79.7715 41.5671C79.2506 41.5671 79.0422 41.6712 79.0422 42.2963C79.0422 43.2339 79.0422 44.1715 79.0422 45.2133C79.0422 45.8384 79.3548 45.9425 79.7715 45.8384C81.7509 45.3175 83.4177 44.0673 84.4595 42.2963C84.6678 41.8796 84.6678 41.6712 84.147 41.6712H81.9592" fill="#AF9259"/>
<path d="M14.0732 32.9095H19.7896V31.7095H15.4151V29.6586H19.2442V28.4586H15.4151V26.4732H19.7351V25.2732H14.0732V32.9095Z" fill="#AF9259"/>
<path d="M27.8724 33.0186C29.476 33.0186 30.5997 32.1677 30.5997 30.7386V30.7168C30.5997 29.4513 29.7597 28.8732 28.1451 28.4804C26.6833 28.1313 26.3342 27.8695 26.3342 27.2804V27.2586C26.3342 26.7568 26.7924 26.3532 27.5778 26.3532C28.276 26.3532 28.9633 26.6259 29.6506 27.1386L30.3706 26.1241C29.596 25.5022 28.7124 25.1641 27.5997 25.1641C26.0833 25.1641 24.9924 26.0695 24.9924 27.3786V27.4004C24.9924 28.8077 25.9088 29.2877 27.5342 29.6804C28.9524 30.0077 29.2578 30.3022 29.2578 30.8477V30.8695C29.2578 31.4477 28.7342 31.8295 27.9051 31.8295C26.956 31.8295 26.2251 31.4695 25.4942 30.8368L24.6869 31.7968C25.6033 32.615 26.7051 33.0186 27.8724 33.0186Z" fill="#AF9259"/>
<path d="M15.9492 46.0006H17.3019V39.6079H19.7237V38.3643H13.5273V39.6079H15.9492V46.0006Z" fill="#AF9259"/>
<path d="M24.9648 46.0006H27.8121C30.2121 46.0006 31.8703 44.3315 31.8703 42.1824V42.1606C31.8703 40.0115 30.2121 38.3643 27.8121 38.3643H24.9648V46.0006ZM26.3067 44.7788V39.5861H27.8121C29.4157 39.5861 30.463 40.6879 30.463 42.1824V42.2043C30.463 43.6988 29.4157 44.7788 27.8121 44.7788H26.3067Z" fill="#AF9259"/>
<path d="M127.396 32.9089H128.727V25.218H127.789L125.738 25.8725L126.022 26.9634L127.396 26.5816V32.9089Z" fill="#AF9259"/>
<path d="M136.86 33.0398C138.911 33.0398 140.133 31.338 140.133 28.8834V28.8616C140.133 27.3561 139.773 26.5161 139.205 25.9489C138.671 25.4143 138.049 25.1416 137.089 25.1416C135.398 25.1416 134.242 26.2871 134.242 27.7816V27.8034C134.242 29.2761 135.322 30.2252 136.947 30.2252C137.765 30.2252 138.354 29.8761 138.736 29.418C138.693 30.8252 138.016 31.818 136.893 31.818C136.238 31.818 135.725 31.5889 135.147 31.098L134.416 32.1234C135.06 32.658 135.802 33.0398 136.86 33.0398ZM137.144 29.1016C136.194 29.1016 135.584 28.5343 135.584 27.738V27.7161C135.584 26.9307 136.151 26.298 137.1 26.298C138.071 26.298 138.693 26.9089 138.693 27.7052V27.7271C138.693 28.4689 138.114 29.1016 137.144 29.1016Z" fill="#AF9259"/>
<path d="M128.035 46.1306C130.086 46.1306 131.308 44.4288 131.308 41.9742V41.9524C131.308 40.447 130.948 39.607 130.381 39.0397C129.846 38.5051 129.224 38.2324 128.264 38.2324C126.573 38.2324 125.417 39.3779 125.417 40.8724V40.8942C125.417 42.367 126.497 43.3161 128.122 43.3161C128.941 43.3161 129.53 42.967 129.912 42.5088C129.868 43.9161 129.192 44.9088 128.068 44.9088C127.413 44.9088 126.901 44.6797 126.322 44.1888L125.592 45.2142C126.235 45.7488 126.977 46.1306 128.035 46.1306ZM128.319 42.1924C127.37 42.1924 126.759 41.6251 126.759 40.8288V40.807C126.759 40.0215 127.326 39.3888 128.275 39.3888C129.246 39.3888 129.868 39.9997 129.868 40.7961V40.8179C129.868 41.5597 129.29 42.1924 128.319 42.1924Z" fill="#AF9259"/>
<path d="M137.9 46.1306C139.503 46.1306 140.736 45.0506 140.736 43.5342V43.5124C140.736 41.9851 139.547 41.1124 138.063 41.1124C137.169 41.1124 136.645 41.4833 136.242 41.8761C136.307 40.4797 136.94 39.4542 138.074 39.4542C138.74 39.4542 139.198 39.7051 139.732 40.1197L140.452 39.0833C139.787 38.5488 139.111 38.2324 138.118 38.2324C135.958 38.2324 134.845 40.0542 134.845 42.3888V42.4106C134.845 43.9488 135.194 44.7451 135.772 45.3342C136.285 45.8361 136.962 46.1306 137.9 46.1306ZM137.867 44.9742C136.907 44.9742 136.285 44.3742 136.285 43.5997V43.5779C136.285 42.847 136.885 42.2361 137.834 42.2361C138.783 42.2361 139.394 42.8033 139.394 43.567V43.5888C139.394 44.3742 138.816 44.9742 137.867 44.9742Z" fill="#AF9259"/>
<path d="M6.90582 91.5602C8.93491 91.5602 10.5549 90.742 11.684 89.7765V84.9656H6.80764V86.7165H9.73673V88.8602C9.03309 89.3838 8.05127 89.7274 6.97127 89.7274C4.63127 89.7274 3.07673 87.9929 3.07673 85.6365V85.6038C3.07673 83.4111 4.68037 81.562 6.79127 81.562C8.24764 81.562 9.11491 82.0365 9.99855 82.7893L11.2749 81.2674C10.0967 80.2693 8.86946 79.7129 6.87309 79.7129C3.42037 79.7129 0.96582 82.4293 0.96582 85.6365V85.6693C0.96582 89.0074 3.32218 91.5602 6.90582 91.5602Z" fill="#AF9259"/>
<path d="M25.4978 91.5602C29.016 91.5602 31.5033 88.8602 31.5033 85.6365V85.6038C31.5033 82.3802 29.0488 79.7129 25.5306 79.7129C22.0124 79.7129 19.5251 82.4129 19.5251 85.6365V85.6693C19.5251 88.8929 21.9797 91.5602 25.4978 91.5602ZM25.5306 89.7111C23.256 89.7111 21.636 87.862 21.636 85.6365V85.6038C21.636 83.3783 23.2233 81.562 25.4978 81.562C27.7724 81.562 29.3924 83.4111 29.3924 85.6365V85.6693C29.3924 87.8947 27.8051 89.7111 25.5306 89.7111Z" fill="#AF9259"/>
<path d="M39.6624 91.3638H47.6969V89.5311H41.6751V79.9093H39.6624V91.3638Z" fill="#AF9259"/>
<path d="M55.521 91.3638H59.7919C63.3919 91.3638 65.8792 88.8602 65.8792 85.6365V85.6038C65.8792 82.3802 63.3919 79.9093 59.7919 79.9093H55.521V91.3638ZM57.5337 89.5311V81.742H59.7919C62.1974 81.742 63.7683 83.3947 63.7683 85.6365V85.6693C63.7683 87.9111 62.1974 89.5311 59.7919 89.5311H57.5337Z" fill="#AF9259"/>
<path d="M79.2236 91.3638H81.2364V79.9093H79.2236V91.3638Z" fill="#AF9259"/>
<path d="M90.0299 91.3638H92.0099V83.182L95.5935 88.5493H95.659L99.2753 83.1493V91.3638H101.288V79.9093H99.1444L95.659 85.3256L92.1735 79.9093H90.0299V91.3638Z" fill="#AF9259"/>
<path d="M108.982 91.3638H111.043L112.222 88.5983H117.638L118.8 91.3638H120.927L115.887 79.8274H114.022L108.982 91.3638ZM112.958 86.8147L114.922 82.2329L116.902 86.8147H112.958Z" fill="#AF9259"/>
<path d="M133.348 91.5602C135.377 91.5602 136.997 90.742 138.126 89.7765V84.9656H133.25V86.7165H136.179V88.8602C135.476 89.3838 134.494 89.7274 133.414 89.7274C131.074 89.7274 129.519 87.9929 129.519 85.6365V85.6038C129.519 83.4111 131.123 81.562 133.234 81.562C134.69 81.562 135.557 82.0365 136.441 82.7893L137.717 81.2674C136.539 80.2693 135.312 79.7129 133.316 79.7129C129.863 79.7129 127.408 82.4293 127.408 85.6365V85.6693C127.408 89.0074 129.765 91.5602 133.348 91.5602Z" fill="#AF9259"/>
<path d="M146.475 91.3638H155.049V89.5638H148.488V86.4874H154.231V84.6874H148.488V81.7093H154.968V79.9093H146.475V91.3638Z" fill="#AF9259"/>
<path d="M43.0674 110.545H44.4763V107.968H46.0685C47.8325 107.968 49.2757 107.029 49.2757 105.23V105.207C49.2757 103.592 48.0959 102.527 46.2288 102.527H43.0674V110.545ZM44.4763 106.697V103.81H46.1143C47.1681 103.81 47.8439 104.303 47.8439 105.242V105.265C47.8439 106.101 47.1796 106.697 46.1143 106.697H44.4763Z" fill="#AF9259"/>
<path d="M53.0096 110.545H54.4185V107.75H56.1825L58.1527 110.545H59.8136L57.6487 107.51C58.7712 107.189 59.5616 106.399 59.5616 105.081V105.059C59.5616 104.36 59.321 103.764 58.8972 103.329C58.3817 102.825 57.5914 102.527 56.5834 102.527H53.0096V110.545ZM54.4185 106.502V103.81H56.4688C57.5112 103.81 58.1297 104.28 58.1297 105.139V105.162C58.1297 105.975 57.4883 106.502 56.4803 106.502H54.4185Z" fill="#AF9259"/>
<path d="M63.6584 110.545H65.0673V102.527H63.6584V110.545Z" fill="#AF9259"/>
<path d="M69.5046 110.545H70.8906V104.841L75.312 110.545H76.4918V102.527H75.1058V108.071L70.8104 102.527H69.5046V110.545Z" fill="#AF9259"/>
<path d="M82.8152 110.545H84.2355V103.833H86.7785V102.527H80.2723V103.833H82.8152V110.545Z" fill="#AF9259"/>
<path d="M90.6437 110.545H92.0526V102.527H90.6437V110.545Z" fill="#AF9259"/>
<path d="M96.4899 110.545H97.8759V104.841L102.297 110.545H103.477V102.527H102.091V108.071L97.7957 102.527H96.4899V110.545Z" fill="#AF9259"/>
<path d="M111.633 110.683C113.054 110.683 114.188 110.11 114.978 109.434V106.067H111.564V107.292H113.615V108.793C113.122 109.159 112.435 109.4 111.679 109.4C110.041 109.4 108.953 108.186 108.953 106.536V106.513C108.953 104.978 110.075 103.684 111.553 103.684C112.572 103.684 113.18 104.016 113.798 104.543L114.692 103.478C113.867 102.779 113.008 102.39 111.61 102.39C109.193 102.39 107.475 104.291 107.475 106.536V106.559C107.475 108.896 109.125 110.683 111.633 110.683Z" fill="#AF9259"/>
</svg>
